solid CATIA STL
  facet normal  0.000000e+000  0.000000e+000  1.000000e+000
    outer loop
      vertex -1.359257e+000 -1.895132e+001  5.000000e+001
      vertex  4.035006e+000 -1.856660e+001  5.000000e+001
      vertex -6.643401e+000 -1.780071e+001  5.000000e+001
    endloop
  endfacet
  facet normal  -0.000000e+000  0.000000e+000  1.000000e+000
    outer loop
      vertex -6.643401e+000 -1.780071e+001  5.000000e+001
      vertex  4.035006e+000 -1.856660e+001  5.000000e+001
      vertex  9.102376e+000 -1.667773e+001  5.000000e+001
    endloop
  endfacet
  facet normal  0.000000e+000  0.000000e+000  1.000000e+000
    outer loop
      vertex -6.643401e+000 -1.780071e+001  5.000000e+001
      vertex  9.102376e+000 -1.667773e+001  5.000000e+001
      vertex -1.138934e+001 -1.520799e+001  5.000000e+001
    endloop
  endfacet
  facet normal  -0.000000e+000  0.000000e+000  1.000000e+000
    outer loop
      vertex -1.138934e+001 -1.520799e+001  5.000000e+001
      vertex  9.102376e+000 -1.667773e+001  5.000000e+001
      vertex  1.343233e+001 -1.343773e+001  5.000000e+001
    endloop
  endfacet
  facet normal  0.000000e+000  0.000000e+000  1.000000e+000
    outer loop
      vertex -1.138934e+001 -1.520799e+001  5.000000e+001
      vertex  1.343233e+001 -1.343773e+001  5.000000e+001
      vertex -1.521257e+001 -1.138322e+001  5.000000e+001
    endloop
  endfacet
  facet normal  -0.000000e+000  0.000000e+000  1.000000e+000
    outer loop
      vertex -1.521257e+001 -1.138322e+001  5.000000e+001
      vertex  1.343233e+001 -1.343773e+001  5.000000e+001
      vertex  1.667407e+001 -9.109085e+000  5.000000e+001
    endloop
  endfacet
  facet normal  0.000000e+000  0.000000e+000  1.000000e+000
    outer loop
      vertex -1.521257e+001 -1.138322e+001  5.000000e+001
      vertex  1.667407e+001 -9.109085e+000  5.000000e+001
      vertex -1.780338e+001 -6.636238e+000  5.000000e+001
    endloop
  endfacet
  facet normal  -0.000000e+000  0.000000e+000  1.000000e+000
    outer loop
      vertex -1.780338e+001 -6.636238e+000  5.000000e+001
      vertex  1.667407e+001 -9.109085e+000  5.000000e+001
      vertex  1.856498e+001 -4.042475e+000  5.000000e+001
    endloop
  endfacet
  facet normal  0.000000e+000  0.000000e+000  9.999999e-001
    outer loop
      vertex -1.780338e+001 -6.636238e+000  5.000000e+001
      vertex  1.856498e+001 -4.042475e+000  5.000000e+001
      vertex -1.895186e+001 -1.351632e+000  5.000000e+001
    endloop
  endfacet
  facet normal  -0.000000e+000  0.000000e+000  1.000000e+000
    outer loop
      vertex -1.895186e+001 -1.351632e+000  5.000000e+001
      vertex  1.856498e+001 -4.042475e+000  5.000000e+001
      vertex  1.895186e+001  1.351632e+000  5.000000e+001
    endloop
  endfacet
  facet normal  0.000000e+000  0.000000e+000  1.000000e+000
    outer loop
      vertex -1.895186e+001 -1.351632e+000  5.000000e+001
      vertex  1.895186e+001  1.351632e+000  5.000000e+001
      vertex -1.856498e+001  4.042475e+000  5.000000e+001
    endloop
  endfacet
  facet normal  -0.000000e+000  0.000000e+000  9.999999e-001
    outer loop
      vertex -1.856498e+001  4.042475e+000  5.000000e+001
      vertex  1.895186e+001  1.351632e+000  5.000000e+001
      vertex  1.780338e+001  6.636238e+000  5.000000e+001
    endloop
  endfacet
  facet normal  0.000000e+000  0.000000e+000  1.000000e+000
    outer loop
      vertex -1.856498e+001  4.042475e+000  5.000000e+001
      vertex  1.780338e+001  6.636238e+000  5.000000e+001
      vertex -1.667407e+001  9.109085e+000  5.000000e+001
    endloop
  endfacet
  facet normal  -0.000000e+000  0.000000e+000  1.000000e+000
    outer loop
      vertex -1.667407e+001  9.109085e+000  5.000000e+001
      vertex  1.780338e+001  6.636238e+000  5.000000e+001
      vertex  1.521257e+001  1.138322e+001  5.000000e+001
    endloop
  endfacet
  facet normal  0.000000e+000  0.000000e+000  1.000000e+000
    outer loop
      vertex -1.667407e+001  9.109085e+000  5.000000e+001
      vertex  1.521257e+001  1.138322e+001  5.000000e+001
      vertex -1.343233e+001  1.343773e+001  5.000000e+001
    endloop
  endfacet
  facet normal  -0.000000e+000  0.000000e+000  1.000000e+000
    outer loop
      vertex -1.343233e+001  1.343773e+001  5.000000e+001
      vertex  1.521257e+001  1.138322e+001  5.000000e+001
      vertex  1.138934e+001  1.520799e+001  5.000000e+001
    endloop
  endfacet
  facet normal  0.000000e+000  0.000000e+000  1.000000e+000
    outer loop
      vertex -1.343233e+001  1.343773e+001  5.000000e+001
      vertex  1.138934e+001  1.520799e+001  5.000000e+001
      vertex -9.102376e+000  1.667773e+001  5.000000e+001
    endloop
  endfacet
  facet normal  -0.000000e+000  0.000000e+000  1.000000e+000
    outer loop
      vertex -9.102376e+000  1.667773e+001  5.000000e+001
      vertex  1.138934e+001  1.520799e+001  5.000000e+001
      vertex  6.643401e+000  1.780071e+001  5.000000e+001
    endloop
  endfacet
  facet normal  0.000000e+000  0.000000e+000  1.000000e+000
    outer loop
      vertex -9.102376e+000  1.667773e+001  5.000000e+001
      vertex  6.643401e+000  1.780071e+001  5.000000e+001
      vertex -4.035006e+000  1.856660e+001  5.000000e+001
    endloop
  endfacet
  facet normal  -0.000000e+000  0.000000e+000  1.000000e+000
    outer loop
      vertex -4.035006e+000  1.856660e+001  5.000000e+001
      vertex  6.643401e+000  1.780071e+001  5.000000e+001
      vertex  1.359257e+000  1.895132e+001  5.000000e+001
    endloop
  endfacet
  facet normal  0.000000e+000  -0.000000e+000 -9.999999e-001
    outer loop
      vertex  1.817185e+000 -9.927326e-001  7.000000e+000
      vertex  1.986912e+000  5.829757e-001  7.000000e+000
      vertex  1.895186e+001  1.351632e+000  7.000000e+000
    endloop
  endfacet
  facet normal  0.000000e+000  -0.000000e+000 -1.000000e+000
    outer loop
      vertex -1.856498e+001  4.042475e+000  7.000000e+000
      vertex -1.667407e+001  9.109085e+000  7.000000e+000
      vertex -1.343233e+001  1.343773e+001  7.000000e+000
    endloop
  endfacet
  facet normal  0.000000e+000  -0.000000e+000 -1.000000e+000
    outer loop
      vertex -1.856498e+001  4.042475e+000  7.000000e+000
      vertex -1.343233e+001  1.343773e+001  7.000000e+000
      vertex -9.102376e+000  1.667773e+001  7.000000e+000
    endloop
  endfacet
  facet normal  0.000000e+000  -0.000000e+000 -1.000000e+000
    outer loop
      vertex -1.856498e+001  4.042475e+000  7.000000e+000
      vertex -9.102376e+000  1.667773e+001  7.000000e+000
      vertex -4.035006e+000  1.856660e+001  7.000000e+000
    endloop
  endfacet
  facet normal  0.000000e+000  -0.000000e+000 -1.000000e+000
    outer loop
      vertex -1.856498e+001  4.042475e+000  7.000000e+000
      vertex -4.035006e+000  1.856660e+001  7.000000e+000
      vertex -5.829757e-001  1.986912e+000  7.000000e+000
    endloop
  endfacet
  facet normal  -0.000000e+000  0.000000e+000 -1.000000e+000
    outer loop
      vertex -1.856498e+001  4.042475e+000  7.000000e+000
      vertex -5.829757e-001  1.986912e+000  7.000000e+000
      vertex -1.817185e+000  9.927326e-001  7.000000e+000
    endloop
  endfacet
  facet normal  -0.000000e+000  0.000000e+000 -9.999999e-001
    outer loop
      vertex -1.856498e+001  4.042475e+000  7.000000e+000
      vertex -1.817185e+000  9.927326e-001  7.000000e+000
      vertex -1.986912e+000 -5.829757e-001  7.000000e+000
    endloop
  endfacet
  facet normal  -0.000000e+000  -0.000000e+000 -1.000000e+000
    outer loop
      vertex -1.856498e+001  4.042475e+000  7.000000e+000
      vertex -1.986912e+000 -5.829757e-001  7.000000e+000
      vertex -9.927326e-001 -1.817185e+000  7.000000e+000
    endloop
  endfacet
  facet normal  0.000000e+000  0.000000e+000 -1.000000e+000
    outer loop
      vertex -1.856498e+001  4.042475e+000  7.000000e+000
      vertex -9.927326e-001 -1.817185e+000  7.000000e+000
      vertex -1.895186e+001 -1.351632e+000  7.000000e+000
    endloop
  endfacet
  facet normal  0.000000e+000  0.000000e+000 -9.999999e-001
    outer loop
      vertex  9.927326e-001  1.817185e+000  7.000000e+000
      vertex -5.829757e-001  1.986912e+000  7.000000e+000
      vertex -4.035006e+000  1.856660e+001  7.000000e+000
    endloop
  endfacet
  facet normal  0.000000e+000  0.000000e+000 -1.000000e+000
    outer loop
      vertex  9.927326e-001  1.817185e+000  7.000000e+000
      vertex -4.035006e+000  1.856660e+001  7.000000e+000
      vertex  1.359257e+000  1.895132e+001  7.000000e+000
    endloop
  endfacet
  facet normal  0.000000e+000  -0.000000e+000 -1.000000e+000
    outer loop
      vertex  9.927326e-001  1.817185e+000  7.000000e+000
      vertex  1.359257e+000  1.895132e+001  7.000000e+000
      vertex  6.643401e+000  1.780071e+001  7.000000e+000
    endloop
  endfacet
  facet normal  0.000000e+000  -0.000000e+000 -9.999999e-001
    outer loop
      vertex  9.927326e-001  1.817185e+000  7.000000e+000
      vertex  6.643401e+000  1.780071e+001  7.000000e+000
      vertex  1.138934e+001  1.520799e+001  7.000000e+000
    endloop
  endfacet
  facet normal  0.000000e+000  -0.000000e+000 -1.000000e+000
    outer loop
      vertex  9.927326e-001  1.817185e+000  7.000000e+000
      vertex  1.138934e+001  1.520799e+001  7.000000e+000
      vertex  1.521257e+001  1.138322e+001  7.000000e+000
    endloop
  endfacet
  facet normal  0.000000e+000  -0.000000e+000 -1.000000e+000
    outer loop
      vertex  9.927326e-001  1.817185e+000  7.000000e+000
      vertex  1.521257e+001  1.138322e+001  7.000000e+000
      vertex  1.780338e+001  6.636238e+000  7.000000e+000
    endloop
  endfacet
  facet normal  0.000000e+000  -0.000000e+000 -1.000000e+000
    outer loop
      vertex  9.927326e-001  1.817185e+000  7.000000e+000
      vertex  1.780338e+001  6.636238e+000  7.000000e+000
      vertex  1.895186e+001  1.351632e+000  7.000000e+000
    endloop
  endfacet
  facet normal  -0.000000e+000  0.000000e+000 -1.000000e+000
    outer loop
      vertex  9.927326e-001  1.817185e+000  7.000000e+000
      vertex  1.895186e+001  1.351632e+000  7.000000e+000
      vertex  1.986912e+000  5.829757e-001  7.000000e+000
    endloop
  endfacet
  facet normal  -0.000000e+000  -0.000000e+000 -1.000000e+000
    outer loop
      vertex -1.895186e+001 -1.351632e+000  7.000000e+000
      vertex -9.927326e-001 -1.817185e+000  7.000000e+000
      vertex  5.829757e-001 -1.986912e+000  7.000000e+000
    endloop
  endfacet
  facet normal  -0.000000e+000  0.000000e+000 -1.000000e+000
    outer loop
      vertex -1.895186e+001 -1.351632e+000  7.000000e+000
      vertex  5.829757e-001 -1.986912e+000  7.000000e+000
      vertex -1.359257e+000 -1.895132e+001  7.000000e+000
    endloop
  endfacet
  facet normal  0.000000e+000  0.000000e+000 -1.000000e+000
    outer loop
      vertex -1.895186e+001 -1.351632e+000  7.000000e+000
      vertex -1.359257e+000 -1.895132e+001  7.000000e+000
      vertex -6.643401e+000 -1.780071e+001  7.000000e+000
    endloop
  endfacet
  facet normal  0.000000e+000  0.000000e+000 -1.000000e+000
    outer loop
      vertex -1.895186e+001 -1.351632e+000  7.000000e+000
      vertex -6.643401e+000 -1.780071e+001  7.000000e+000
      vertex -1.138934e+001 -1.520799e+001  7.000000e+000
    endloop
  endfacet
  facet normal  0.000000e+000  0.000000e+000 -1.000000e+000
    outer loop
      vertex -1.895186e+001 -1.351632e+000  7.000000e+000
      vertex -1.138934e+001 -1.520799e+001  7.000000e+000
      vertex -1.521257e+001 -1.138322e+001  7.000000e+000
    endloop
  endfacet
  facet normal  0.000000e+000  0.000000e+000 -1.000000e+000
    outer loop
      vertex -1.895186e+001 -1.351632e+000  7.000000e+000
      vertex -1.521257e+001 -1.138322e+001  7.000000e+000
      vertex -1.780338e+001 -6.636238e+000  7.000000e+000
    endloop
  endfacet
  facet normal  0.000000e+000  -0.000000e+000 -1.000000e+000
    outer loop
      vertex  5.829757e-001 -1.986912e+000  7.000000e+000
      vertex  1.817185e+000 -9.927326e-001  7.000000e+000
      vertex  1.895186e+001  1.351632e+000  7.000000e+000
    endloop
  endfacet
  facet normal  0.000000e+000  0.000000e+000 -1.000000e+000
    outer loop
      vertex  5.829757e-001 -1.986912e+000  7.000000e+000
      vertex  1.895186e+001  1.351632e+000  7.000000e+000
      vertex  1.856498e+001 -4.042475e+000  7.000000e+000
    endloop
  endfacet
  facet normal  -0.000000e+000  0.000000e+000 -1.000000e+000
    outer loop
      vertex  5.829757e-001 -1.986912e+000  7.000000e+000
      vertex  1.856498e+001 -4.042475e+000  7.000000e+000
      vertex  1.667407e+001 -9.109085e+000  7.000000e+000
    endloop
  endfacet
  facet normal  -0.000000e+000  0.000000e+000 -9.999999e-001
    outer loop
      vertex  5.829757e-001 -1.986912e+000  7.000000e+000
      vertex  1.667407e+001 -9.109085e+000  7.000000e+000
      vertex  1.343233e+001 -1.343773e+001  7.000000e+000
    endloop
  endfacet
  facet normal  -0.000000e+000  0.000000e+000 -1.000000e+000
    outer loop
      vertex  5.829757e-001 -1.986912e+000  7.000000e+000
      vertex  1.343233e+001 -1.343773e+001  7.000000e+000
      vertex  9.102376e+000 -1.667773e+001  7.000000e+000
    endloop
  endfacet
  facet normal  -0.000000e+000  0.000000e+000 -9.999999e-001
    outer loop
      vertex  5.829757e-001 -1.986912e+000  7.000000e+000
      vertex  9.102376e+000 -1.667773e+001  7.000000e+000
      vertex  4.035006e+000 -1.856660e+001  7.000000e+000
    endloop
  endfacet
  facet normal  -0.000000e+000  0.000000e+000 -1.000000e+000
    outer loop
      vertex  5.829757e-001 -1.986912e+000  7.000000e+000
      vertex  4.035006e+000 -1.856660e+001  7.000000e+000
      vertex -1.359257e+000 -1.895132e+001  7.000000e+000
    endloop
  endfacet
  facet normal  -0.000000e+000  0.000000e+000  1.000000e+000
    outer loop
      vertex  1.363439e+001  1.759210e+000 -1.040739e+001
      vertex  1.986912e+000  5.829757e-001 -1.040739e+001
      vertex  1.817185e+000 -9.927326e-001 -1.040739e+001
    endloop
  endfacet
  facet normal  -0.000000e+000  0.000000e+000  9.999999e-001
    outer loop
      vertex -1.351070e+001  2.540148e+000 -1.040739e+001
      vertex -1.363439e+001 -1.759210e+000 -1.040739e+001
      vertex -9.927326e-001 -1.817185e+000 -1.040739e+001
    endloop
  endfacet
  facet normal  0.000000e+000  0.000000e+000  1.000000e+000
    outer loop
      vertex -1.351070e+001  2.540148e+000 -1.040739e+001
      vertex -9.927326e-001 -1.817185e+000 -1.040739e+001
      vertex -1.986912e+000 -5.829757e-001 -1.040739e+001
    endloop
  endfacet
  facet normal  0.000000e+000  -0.000000e+000  1.000000e+000
    outer loop
      vertex -1.351070e+001  2.540148e+000 -1.040739e+001
      vertex -1.986912e+000 -5.829757e-001 -1.040739e+001
      vertex -1.817185e+000  9.927326e-001 -1.040739e+001
    endloop
  endfacet
  facet normal  0.000000e+000  -0.000000e+000  1.000000e+000
    outer loop
      vertex -1.351070e+001  2.540148e+000 -1.040739e+001
      vertex -1.817185e+000  9.927326e-001 -1.040739e+001
      vertex -5.829757e-001  1.986912e+000 -1.040739e+001
    endloop
  endfacet
  facet normal  0.000000e+000  0.000000e+000  1.000000e+000
    outer loop
      vertex -1.351070e+001  2.540148e+000 -1.040739e+001
      vertex -5.829757e-001  1.986912e+000 -1.040739e+001
      vertex -1.759210e+000  1.363439e+001 -1.040739e+001
    endloop
  endfacet
  facet normal  0.000000e+000  0.000000e+000  1.000000e+000
    outer loop
      vertex -1.351070e+001  2.540148e+000 -1.040739e+001
      vertex -1.759210e+000  1.363439e+001 -1.040739e+001
      vertex -5.886365e+000  1.242345e+001 -1.040739e+001
    endloop
  endfacet
  facet normal  0.000000e+000  0.000000e+000  1.000000e+000
    outer loop
      vertex -1.351070e+001  2.540148e+000 -1.040739e+001
      vertex -5.886365e+000  1.242345e+001 -1.040739e+001
      vertex -9.437323e+000  9.996412e+000 -1.040739e+001
    endloop
  endfacet
  facet normal  0.000000e+000  0.000000e+000  9.999999e-001
    outer loop
      vertex -1.351070e+001  2.540148e+000 -1.040739e+001
      vertex -9.437323e+000  9.996412e+000 -1.040739e+001
      vertex -1.206449e+001  6.590860e+000 -1.040739e+001
    endloop
  endfacet
  facet normal  0.000000e+000  -0.000000e+000  1.000000e+000
    outer loop
      vertex  9.927326e-001  1.817185e+000 -1.040739e+001
      vertex  1.986912e+000  5.829757e-001 -1.040739e+001
      vertex  1.363439e+001  1.759210e+000 -1.040739e+001
    endloop
  endfacet
  facet normal  0.000000e+000  0.000000e+000  1.000000e+000
    outer loop
      vertex  9.927326e-001  1.817185e+000 -1.040739e+001
      vertex  1.363439e+001  1.759210e+000 -1.040739e+001
      vertex  1.242345e+001  5.886365e+000 -1.040739e+001
    endloop
  endfacet
  facet normal  0.000000e+000  0.000000e+000  1.000000e+000
    outer loop
      vertex  9.927326e-001  1.817185e+000 -1.040739e+001
      vertex  1.242345e+001  5.886365e+000 -1.040739e+001
      vertex  9.996412e+000  9.437323e+000 -1.040739e+001
    endloop
  endfacet
  facet normal  0.000000e+000  0.000000e+000  1.000000e+000
    outer loop
      vertex  9.927326e-001  1.817185e+000 -1.040739e+001
      vertex  9.996412e+000  9.437323e+000 -1.040739e+001
      vertex  6.590860e+000  1.206449e+001 -1.040739e+001
    endloop
  endfacet
  facet normal  0.000000e+000  0.000000e+000  1.000000e+000
    outer loop
      vertex  9.927326e-001  1.817185e+000 -1.040739e+001
      vertex  6.590860e+000  1.206449e+001 -1.040739e+001
      vertex  2.540148e+000  1.351070e+001 -1.040739e+001
    endloop
  endfacet
  facet normal  0.000000e+000  0.000000e+000  1.000000e+000
    outer loop
      vertex  9.927326e-001  1.817185e+000 -1.040739e+001
      vertex  2.540148e+000  1.351070e+001 -1.040739e+001
      vertex -1.759210e+000  1.363439e+001 -1.040739e+001
    endloop
  endfacet
  facet normal  0.000000e+000  0.000000e+000  1.000000e+000
    outer loop
      vertex  9.927326e-001  1.817185e+000 -1.040739e+001
      vertex -1.759210e+000  1.363439e+001 -1.040739e+001
      vertex -5.829757e-001  1.986912e+000 -1.040739e+001
    endloop
  endfacet
  facet normal  -0.000000e+000  -0.000000e+000  1.000000e+000
    outer loop
      vertex -1.363439e+001 -1.759210e+000 -1.040739e+001
      vertex -1.242345e+001 -5.886365e+000 -1.040739e+001
      vertex -9.996412e+000 -9.437323e+000 -1.040739e+001
    endloop
  endfacet
  facet normal  -0.000000e+000  -0.000000e+000  1.000000e+000
    outer loop
      vertex -1.363439e+001 -1.759210e+000 -1.040739e+001
      vertex -9.996412e+000 -9.437323e+000 -1.040739e+001
      vertex -6.590860e+000 -1.206449e+001 -1.040739e+001
    endloop
  endfacet
  facet normal  -0.000000e+000  -0.000000e+000  1.000000e+000
    outer loop
      vertex -1.363439e+001 -1.759210e+000 -1.040739e+001
      vertex -6.590860e+000 -1.206449e+001 -1.040739e+001
      vertex -2.540148e+000 -1.351070e+001 -1.040739e+001
    endloop
  endfacet
  facet normal  0.000000e+000  -0.000000e+000  1.000000e+000
    outer loop
      vertex -1.363439e+001 -1.759210e+000 -1.040739e+001
      vertex -2.540148e+000 -1.351070e+001 -1.040739e+001
      vertex  5.829757e-001 -1.986912e+000 -1.040739e+001
    endloop
  endfacet
  facet normal  0.000000e+000  0.000000e+000  1.000000e+000
    outer loop
      vertex -1.363439e+001 -1.759210e+000 -1.040739e+001
      vertex  5.829757e-001 -1.986912e+000 -1.040739e+001
      vertex -9.927326e-001 -1.817185e+000 -1.040739e+001
    endloop
  endfacet
  facet normal  -0.000000e+000  0.000000e+000  1.000000e+000
    outer loop
      vertex  5.829757e-001 -1.986912e+000 -1.040739e+001
      vertex -2.540148e+000 -1.351070e+001 -1.040739e+001
      vertex  1.759210e+000 -1.363439e+001 -1.040739e+001
    endloop
  endfacet
  facet normal  0.000000e+000  -0.000000e+000  1.000000e+000
    outer loop
      vertex  5.829757e-001 -1.986912e+000 -1.040739e+001
      vertex  1.759210e+000 -1.363439e+001 -1.040739e+001
      vertex  5.886365e+000 -1.242345e+001 -1.040739e+001
    endloop
  endfacet
  facet normal  0.000000e+000  -0.000000e+000  9.999999e-001
    outer loop
      vertex  5.829757e-001 -1.986912e+000 -1.040739e+001
      vertex  5.886365e+000 -1.242345e+001 -1.040739e+001
      vertex  9.437323e+000 -9.996412e+000 -1.040739e+001
    endloop
  endfacet
  facet normal  0.000000e+000  -0.000000e+000  1.000000e+000
    outer loop
      vertex  5.829757e-001 -1.986912e+000 -1.040739e+001
      vertex  9.437323e+000 -9.996412e+000 -1.040739e+001
      vertex  1.206449e+001 -6.590860e+000 -1.040739e+001
    endloop
  endfacet
  facet normal  0.000000e+000  -0.000000e+000  1.000000e+000
    outer loop
      vertex  5.829757e-001 -1.986912e+000 -1.040739e+001
      vertex  1.206449e+001 -6.590860e+000 -1.040739e+001
      vertex  1.351070e+001 -2.540148e+000 -1.040739e+001
    endloop
  endfacet
  facet normal  0.000000e+000  -0.000000e+000  1.000000e+000
    outer loop
      vertex  5.829757e-001 -1.986912e+000 -1.040739e+001
      vertex  1.351070e+001 -2.540148e+000 -1.040739e+001
      vertex  1.363439e+001  1.759210e+000 -1.040739e+001
    endloop
  endfacet
  facet normal  0.000000e+000  0.000000e+000  1.000000e+000
    outer loop
      vertex  5.829757e-001 -1.986912e+000 -1.040739e+001
      vertex  1.363439e+001  1.759210e+000 -1.040739e+001
      vertex  1.817185e+000 -9.927326e-001 -1.040739e+001
    endloop
  endfacet
  facet normal  0.000000e+000  0.000000e+000 -9.999999e-001
    outer loop
      vertex  1.759210e+000 -1.363439e+001 -1.300000e+001
      vertex -2.540148e+000 -1.351070e+001 -1.300000e+001
      vertex  5.886365e+000 -1.242345e+001 -1.300000e+001
    endloop
  endfacet
  facet normal  -0.000000e+000  0.000000e+000 -1.000000e+000
    outer loop
      vertex  5.886365e+000 -1.242345e+001 -1.300000e+001
      vertex -2.540148e+000 -1.351070e+001 -1.300000e+001
      vertex -6.590860e+000 -1.206449e+001 -1.300000e+001
    endloop
  endfacet
  facet normal  0.000000e+000  0.000000e+000 -1.000000e+000
    outer loop
      vertex  5.886365e+000 -1.242345e+001 -1.300000e+001
      vertex -6.590860e+000 -1.206449e+001 -1.300000e+001
      vertex  9.437323e+000 -9.996412e+000 -1.300000e+001
    endloop
  endfacet
  facet normal  -0.000000e+000  0.000000e+000 -1.000000e+000
    outer loop
      vertex  9.437323e+000 -9.996412e+000 -1.300000e+001
      vertex -6.590860e+000 -1.206449e+001 -1.300000e+001
      vertex -9.996412e+000 -9.437323e+000 -1.300000e+001
    endloop
  endfacet
  facet normal  0.000000e+000  0.000000e+000 -1.000000e+000
    outer loop
      vertex  9.437323e+000 -9.996412e+000 -1.300000e+001
      vertex -9.996412e+000 -9.437323e+000 -1.300000e+001
      vertex  1.206449e+001 -6.590860e+000 -1.300000e+001
    endloop
  endfacet
  facet normal  -0.000000e+000  0.000000e+000 -1.000000e+000
    outer loop
      vertex  1.206449e+001 -6.590860e+000 -1.300000e+001
      vertex -9.996412e+000 -9.437323e+000 -1.300000e+001
      vertex -1.242345e+001 -5.886365e+000 -1.300000e+001
    endloop
  endfacet
  facet normal  0.000000e+000  0.000000e+000 -1.000000e+000
    outer loop
      vertex  1.206449e+001 -6.590860e+000 -1.300000e+001
      vertex -1.242345e+001 -5.886365e+000 -1.300000e+001
      vertex  1.351070e+001 -2.540148e+000 -1.300000e+001
    endloop
  endfacet
  facet normal  -0.000000e+000  0.000000e+000 -1.000000e+000
    outer loop
      vertex  1.351070e+001 -2.540148e+000 -1.300000e+001
      vertex -1.242345e+001 -5.886365e+000 -1.300000e+001
      vertex -1.363439e+001 -1.759210e+000 -1.300000e+001
    endloop
  endfacet
  facet normal  0.000000e+000  0.000000e+000 -1.000000e+000
    outer loop
      vertex  1.351070e+001 -2.540148e+000 -1.300000e+001
      vertex -1.363439e+001 -1.759210e+000 -1.300000e+001
      vertex  1.363439e+001  1.759210e+000 -1.300000e+001
    endloop
  endfacet
  facet normal  -0.000000e+000  0.000000e+000 -1.000000e+000
    outer loop
      vertex  1.363439e+001  1.759210e+000 -1.300000e+001
      vertex -1.363439e+001 -1.759210e+000 -1.300000e+001
      vertex -1.351070e+001  2.540148e+000 -1.300000e+001
    endloop
  endfacet
  facet normal  0.000000e+000  0.000000e+000 -1.000000e+000
    outer loop
      vertex  1.363439e+001  1.759210e+000 -1.300000e+001
      vertex -1.351070e+001  2.540148e+000 -1.300000e+001
      vertex  1.242345e+001  5.886365e+000 -1.300000e+001
    endloop
  endfacet
  facet normal  -0.000000e+000  0.000000e+000 -1.000000e+000
    outer loop
      vertex  1.242345e+001  5.886365e+000 -1.300000e+001
      vertex -1.351070e+001  2.540148e+000 -1.300000e+001
      vertex -1.206449e+001  6.590860e+000 -1.300000e+001
    endloop
  endfacet
  facet normal  0.000000e+000  0.000000e+000 -1.000000e+000
    outer loop
      vertex  1.242345e+001  5.886365e+000 -1.300000e+001
      vertex -1.206449e+001  6.590860e+000 -1.300000e+001
      vertex  9.996412e+000  9.437323e+000 -1.300000e+001
    endloop
  endfacet
  facet normal  -0.000000e+000  0.000000e+000 -1.000000e+000
    outer loop
      vertex  9.996412e+000  9.437323e+000 -1.300000e+001
      vertex -1.206449e+001  6.590860e+000 -1.300000e+001
      vertex -9.437323e+000  9.996412e+000 -1.300000e+001
    endloop
  endfacet
  facet normal  0.000000e+000  0.000000e+000 -1.000000e+000
    outer loop
      vertex  9.996412e+000  9.437323e+000 -1.300000e+001
      vertex -9.437323e+000  9.996412e+000 -1.300000e+001
      vertex  6.590860e+000  1.206449e+001 -1.300000e+001
    endloop
  endfacet
  facet normal  -0.000000e+000  0.000000e+000 -1.000000e+000
    outer loop
      vertex  6.590860e+000  1.206449e+001 -1.300000e+001
      vertex -9.437323e+000  9.996412e+000 -1.300000e+001
      vertex -5.886365e+000  1.242345e+001 -1.300000e+001
    endloop
  endfacet
  facet normal  0.000000e+000  0.000000e+000 -1.000000e+000
    outer loop
      vertex  6.590860e+000  1.206449e+001 -1.300000e+001
      vertex -5.886365e+000  1.242345e+001 -1.300000e+001
      vertex  2.540148e+000  1.351070e+001 -1.300000e+001
    endloop
  endfacet
  facet normal  -0.000000e+000  0.000000e+000 -9.999999e-001
    outer loop
      vertex  2.540148e+000  1.351070e+001 -1.300000e+001
      vertex -5.886365e+000  1.242345e+001 -1.300000e+001
      vertex -1.759210e+000  1.363439e+001 -1.300000e+001
    endloop
  endfacet
  facet normal -9.368794e-001  3.496527e-001  0.000000e+000
    outer loop
      vertex -1.667407e+001  9.109085e+000  5.000000e+001
      vertex -1.667407e+001  9.109085e+000  7.000000e+000
      vertex -1.856498e+001  4.042475e+000  5.000000e+001
    endloop
  endfacet
  facet normal -9.368794e-001  3.496527e-001  0.000000e+000
    outer loop
      vertex -1.856498e+001  4.042475e+000  5.000000e+001
      vertex -1.667407e+001  9.109085e+000  7.000000e+000
      vertex -1.856498e+001  4.042475e+000  7.000000e+000
    endloop
  endfacet
  facet normal -9.974377e-001  7.153980e-002  0.000000e+000
    outer loop
      vertex -1.856498e+001  4.042475e+000  5.000000e+001
      vertex -1.856498e+001  4.042475e+000  7.000000e+000
      vertex -1.895186e+001 -1.351632e+000  5.000000e+001
    endloop
  endfacet
  facet normal -9.974377e-001  7.153980e-002  0.000000e+000
    outer loop
      vertex -1.895186e+001 -1.351632e+000  5.000000e+001
      vertex -1.856498e+001  4.042475e+000  7.000000e+000
      vertex -1.895186e+001 -1.351632e+000  7.000000e+000
    endloop
  endfacet
  facet normal -9.771896e-001 -2.123685e-001  0.000000e+000
    outer loop
      vertex -1.895186e+001 -1.351632e+000  5.000000e+001
      vertex -1.895186e+001 -1.351632e+000  7.000000e+000
      vertex -1.780338e+001 -6.636238e+000  5.000000e+001
    endloop
  endfacet
  facet normal -9.771896e-001 -2.123685e-001  -0.000000e+000
    outer loop
      vertex -1.780338e+001 -6.636238e+000  5.000000e+001
      vertex -1.895186e+001 -1.351632e+000  7.000000e+000
      vertex -1.780338e+001 -6.636238e+000  7.000000e+000
    endloop
  endfacet
  facet normal -8.777753e-001 -4.790725e-001  0.000000e+000
    outer loop
      vertex -1.780338e+001 -6.636238e+000  5.000000e+001
      vertex -1.780338e+001 -6.636238e+000  7.000000e+000
      vertex -1.521257e+001 -1.138322e+001  5.000000e+001
    endloop
  endfacet
  facet normal -8.777753e-001 -4.790725e-001  -0.000000e+000
    outer loop
      vertex -1.521257e+001 -1.138322e+001  5.000000e+001
      vertex -1.780338e+001 -6.636238e+000  7.000000e+000
      vertex -1.521257e+001 -1.138322e+001  7.000000e+000
    endloop
  endfacet
  facet normal -7.072490e-001 -7.069646e-001  0.000000e+000
    outer loop
      vertex -1.521257e+001 -1.138322e+001  5.000000e+001
      vertex -1.521257e+001 -1.138322e+001  7.000000e+000
      vertex -1.138934e+001 -1.520799e+001  5.000000e+001
    endloop
  endfacet
  facet normal -7.072490e-001 -7.069646e-001  -0.000000e+000
    outer loop
      vertex -1.138934e+001 -1.520799e+001  5.000000e+001
      vertex -1.521257e+001 -1.138322e+001  7.000000e+000
      vertex -1.138934e+001 -1.520799e+001  7.000000e+000
    endloop
  endfacet
  facet normal -4.794255e-001 -8.775826e-001  0.000000e+000
    outer loop
      vertex -1.138934e+001 -1.520799e+001  5.000000e+001
      vertex -1.138934e+001 -1.520799e+001  7.000000e+000
      vertex -6.643401e+000 -1.780071e+001  5.000000e+001
    endloop
  endfacet
  facet normal -4.794255e-001 -8.775826e-001  -0.000000e+000
    outer loop
      vertex -6.643401e+000 -1.780071e+001  5.000000e+001
      vertex -1.138934e+001 -1.520799e+001  7.000000e+000
      vertex -6.643401e+000 -1.780071e+001  7.000000e+000
    endloop
  endfacet
  facet normal -2.127618e-001 -9.771041e-001  0.000000e+000
    outer loop
      vertex -6.643401e+000 -1.780071e+001  5.000000e+001
      vertex -6.643401e+000 -1.780071e+001  7.000000e+000
      vertex -1.359257e+000 -1.895132e+001  5.000000e+001
    endloop
  endfacet
  facet normal -2.127618e-001 -9.771041e-001  -0.000000e+000
    outer loop
      vertex -1.359257e+000 -1.895132e+001  5.000000e+001
      vertex -6.643401e+000 -1.780071e+001  7.000000e+000
      vertex -1.359257e+000 -1.895132e+001  7.000000e+000
    endloop
  endfacet
  facet normal  7.113844e-002 -9.974664e-001  0.000000e+000
    outer loop
      vertex -1.359257e+000 -1.895132e+001  5.000000e+001
      vertex -1.359257e+000 -1.895132e+001  7.000000e+000
      vertex  4.035006e+000 -1.856660e+001  5.000000e+001
    endloop
  endfacet
  facet normal  7.113844e-002 -9.974664e-001  0.000000e+000
    outer loop
      vertex  4.035006e+000 -1.856660e+001  5.000000e+001
      vertex -1.359257e+000 -1.895132e+001  7.000000e+000
      vertex  4.035006e+000 -1.856660e+001  7.000000e+000
    endloop
  endfacet
  facet normal  3.492757e-001 -9.370200e-001  0.000000e+000
    outer loop
      vertex  4.035006e+000 -1.856660e+001  5.000000e+001
      vertex  4.035006e+000 -1.856660e+001  7.000000e+000
      vertex  9.102376e+000 -1.667773e+001  5.000000e+001
    endloop
  endfacet
  facet normal  3.492757e-001 -9.370200e-001  0.000000e+000
    outer loop
      vertex  9.102376e+000 -1.667773e+001  5.000000e+001
      vertex  4.035006e+000 -1.856660e+001  7.000000e+000
      vertex  9.102376e+000 -1.667773e+001  7.000000e+000
    endloop
  endfacet
  facet normal  5.991166e-001 -8.006618e-001  0.000000e+000
    outer loop
      vertex  9.102376e+000 -1.667773e+001  5.000000e+001
      vertex  9.102376e+000 -1.667773e+001  7.000000e+000
      vertex  1.343233e+001 -1.343773e+001  5.000000e+001
    endloop
  endfacet
  facet normal  5.991166e-001 -8.006618e-001  0.000000e+000
    outer loop
      vertex  1.343233e+001 -1.343773e+001  5.000000e+001
      vertex  9.102376e+000 -1.667773e+001  7.000000e+000
      vertex  1.343233e+001 -1.343773e+001  7.000000e+000
    endloop
  endfacet
  facet normal  8.004208e-001 -5.994386e-001  0.000000e+000
    outer loop
      vertex  1.343233e+001 -1.343773e+001  5.000000e+001
      vertex  1.343233e+001 -1.343773e+001  7.000000e+000
      vertex  1.667407e+001 -9.109085e+000  5.000000e+001
    endloop
  endfacet
  facet normal  8.004208e-001 -5.994386e-001  0.000000e+000
    outer loop
      vertex  1.667407e+001 -9.109085e+000  5.000000e+001
      vertex  1.343233e+001 -1.343773e+001  7.000000e+000
      vertex  1.667407e+001 -9.109085e+000  7.000000e+000
    endloop
  endfacet
  facet normal -9.942488e-001  1.070951e-001  0.000000e+000
    outer loop
      vertex -1.817185e+000  9.927326e-001  7.000000e+000
      vertex -1.817185e+000  9.927326e-001 -1.040739e+001
      vertex -1.986912e+000 -5.829757e-001  7.000000e+000
    endloop
  endfacet
  facet normal -9.942488e-001  1.070951e-001  0.000000e+000
    outer loop
      vertex -1.986912e+000 -5.829757e-001  7.000000e+000
      vertex -1.817185e+000  9.927326e-001 -1.040739e+001
      vertex -1.986912e+000 -5.829757e-001 -1.040739e+001
    endloop
  endfacet
  facet normal -7.787678e-001 -6.273123e-001  0.000000e+000
    outer loop
      vertex -1.986912e+000 -5.829757e-001  7.000000e+000
      vertex -1.986912e+000 -5.829757e-001 -1.040739e+001
      vertex -9.927326e-001 -1.817185e+000  7.000000e+000
    endloop
  endfacet
  facet normal -7.787678e-001 -6.273123e-001  -0.000000e+000
    outer loop
      vertex -9.927326e-001 -1.817185e+000  7.000000e+000
      vertex -1.986912e+000 -5.829757e-001 -1.040739e+001
      vertex -9.927326e-001 -1.817185e+000 -1.040739e+001
    endloop
  endfacet
  facet normal -1.070951e-001 -9.942488e-001  0.000000e+000
    outer loop
      vertex -9.927326e-001 -1.817185e+000  7.000000e+000
      vertex -9.927326e-001 -1.817185e+000 -1.040739e+001
      vertex  5.829757e-001 -1.986912e+000  7.000000e+000
    endloop
  endfacet
  facet normal -1.070951e-001 -9.942488e-001  -0.000000e+000
    outer loop
      vertex  5.829757e-001 -1.986912e+000  7.000000e+000
      vertex -9.927326e-001 -1.817185e+000 -1.040739e+001
      vertex  5.829757e-001 -1.986912e+000 -1.040739e+001
    endloop
  endfacet
  facet normal  6.273123e-001 -7.787678e-001  0.000000e+000
    outer loop
      vertex  5.829757e-001 -1.986912e+000  7.000000e+000
      vertex  5.829757e-001 -1.986912e+000 -1.040739e+001
      vertex  1.817185e+000 -9.927326e-001  7.000000e+000
    endloop
  endfacet
  facet normal  6.273123e-001 -7.787678e-001  0.000000e+000
    outer loop
      vertex  1.817185e+000 -9.927326e-001  7.000000e+000
      vertex  5.829757e-001 -1.986912e+000 -1.040739e+001
      vertex  1.817185e+000 -9.927326e-001 -1.040739e+001
    endloop
  endfacet
  facet normal -9.417768e-001  3.362387e-001  0.000000e+000
    outer loop
      vertex -1.206449e+001  6.590860e+000 -1.040739e+001
      vertex -1.206449e+001  6.590860e+000 -1.300000e+001
      vertex -1.351070e+001  2.540148e+000 -1.040739e+001
    endloop
  endfacet
  facet normal -9.417768e-001  3.362387e-001  0.000000e+000
    outer loop
      vertex -1.351070e+001  2.540148e+000 -1.040739e+001
      vertex -1.206449e+001  6.590860e+000 -1.300000e+001
      vertex -1.351070e+001  2.540148e+000 -1.300000e+001
    endloop
  endfacet
  facet normal -9.995864e-001  2.875720e-002  0.000000e+000
    outer loop
      vertex -1.351070e+001  2.540148e+000 -1.040739e+001
      vertex -1.351070e+001  2.540148e+000 -1.300000e+001
      vertex -1.363439e+001 -1.759210e+000 -1.040739e+001
    endloop
  endfacet
  facet normal -9.995864e-001  2.875720e-002  0.000000e+000
    outer loop
      vertex -1.363439e+001 -1.759210e+000 -1.040739e+001
      vertex -1.351070e+001  2.540148e+000 -1.300000e+001
      vertex -1.363439e+001 -1.759210e+000 -1.300000e+001
    endloop
  endfacet
  facet normal -9.595496e-001 -2.815396e-001  0.000000e+000
    outer loop
      vertex -1.363439e+001 -1.759210e+000 -1.040739e+001
      vertex -1.363439e+001 -1.759210e+000 -1.300000e+001
      vertex -1.242345e+001 -5.886365e+000 -1.040739e+001
    endloop
  endfacet
  facet normal -9.595496e-001 -2.815396e-001  -0.000000e+000
    outer loop
      vertex -1.242345e+001 -5.886365e+000 -1.040739e+001
      vertex -1.363439e+001 -1.759210e+000 -1.300000e+001
      vertex -1.242345e+001 -5.886365e+000 -1.300000e+001
    endloop
  endfacet
  facet normal -8.255855e-001 -5.642771e-001  0.000000e+000
    outer loop
      vertex -1.242345e+001 -5.886365e+000 -1.040739e+001
      vertex -1.242345e+001 -5.886365e+000 -1.300000e+001
      vertex -9.996412e+000 -9.437323e+000 -1.040739e+001
    endloop
  endfacet
  facet normal -8.255855e-001 -5.642771e-001  -0.000000e+000
    outer loop
      vertex -9.996412e+000 -9.437323e+000 -1.040739e+001
      vertex -1.242345e+001 -5.886365e+000 -1.300000e+001
      vertex -9.996412e+000 -9.437323e+000 -1.300000e+001
    endloop
  endfacet
  facet normal -6.108072e-001 -7.917795e-001  0.000000e+000
    outer loop
      vertex -9.996412e+000 -9.437323e+000 -1.040739e+001
      vertex -9.996412e+000 -9.437323e+000 -1.300000e+001
      vertex -6.590860e+000 -1.206449e+001 -1.040739e+001
    endloop
  endfacet
  facet normal -6.108072e-001 -7.917795e-001  -0.000000e+000
    outer loop
      vertex -6.590860e+000 -1.206449e+001 -1.040739e+001
      vertex -9.996412e+000 -9.437323e+000 -1.300000e+001
      vertex -6.590860e+000 -1.206449e+001 -1.300000e+001
    endloop
  endfacet
  facet normal -3.362387e-001 -9.417768e-001  0.000000e+000
    outer loop
      vertex -6.590860e+000 -1.206449e+001 -1.040739e+001
      vertex -6.590860e+000 -1.206449e+001 -1.300000e+001
      vertex -2.540148e+000 -1.351070e+001 -1.040739e+001
    endloop
  endfacet
  facet normal -3.362387e-001 -9.417768e-001  -0.000000e+000
    outer loop
      vertex -2.540148e+000 -1.351070e+001 -1.040739e+001
      vertex -6.590860e+000 -1.206449e+001 -1.300000e+001
      vertex -2.540148e+000 -1.351070e+001 -1.300000e+001
    endloop
  endfacet
  facet normal -2.875720e-002 -9.995864e-001  0.000000e+000
    outer loop
      vertex -2.540148e+000 -1.351070e+001 -1.040739e+001
      vertex -2.540148e+000 -1.351070e+001 -1.300000e+001
      vertex  1.759210e+000 -1.363439e+001 -1.040739e+001
    endloop
  endfacet
  facet normal -2.875720e-002 -9.995864e-001  -0.000000e+000
    outer loop
      vertex  1.759210e+000 -1.363439e+001 -1.040739e+001
      vertex -2.540148e+000 -1.351070e+001 -1.300000e+001
      vertex  1.759210e+000 -1.363439e+001 -1.300000e+001
    endloop
  endfacet
  facet normal  2.815396e-001 -9.595496e-001  0.000000e+000
    outer loop
      vertex  1.759210e+000 -1.363439e+001 -1.040739e+001
      vertex  1.759210e+000 -1.363439e+001 -1.300000e+001
      vertex  5.886365e+000 -1.242345e+001 -1.040739e+001
    endloop
  endfacet
  facet normal  2.815396e-001 -9.595496e-001  0.000000e+000
    outer loop
      vertex  5.886365e+000 -1.242345e+001 -1.040739e+001
      vertex  1.759210e+000 -1.363439e+001 -1.300000e+001
      vertex  5.886365e+000 -1.242345e+001 -1.300000e+001
    endloop
  endfacet
  facet normal  5.642771e-001 -8.255855e-001  0.000000e+000
    outer loop
      vertex  5.886365e+000 -1.242345e+001 -1.040739e+001
      vertex  5.886365e+000 -1.242345e+001 -1.300000e+001
      vertex  9.437323e+000 -9.996412e+000 -1.040739e+001
    endloop
  endfacet
  facet normal  5.642771e-001 -8.255855e-001  0.000000e+000
    outer loop
      vertex  9.437323e+000 -9.996412e+000 -1.040739e+001
      vertex  5.886365e+000 -1.242345e+001 -1.300000e+001
      vertex  9.437323e+000 -9.996412e+000 -1.300000e+001
    endloop
  endfacet
  facet normal  7.917795e-001 -6.108072e-001  0.000000e+000
    outer loop
      vertex  9.437323e+000 -9.996412e+000 -1.040739e+001
      vertex  9.437323e+000 -9.996412e+000 -1.300000e+001
      vertex  1.206449e+001 -6.590860e+000 -1.040739e+001
    endloop
  endfacet
  facet normal  7.917795e-001 -6.108072e-001  0.000000e+000
    outer loop
      vertex  1.206449e+001 -6.590860e+000 -1.040739e+001
      vertex  9.437323e+000 -9.996412e+000 -1.300000e+001
      vertex  1.206449e+001 -6.590860e+000 -1.300000e+001
    endloop
  endfacet
  facet normal  9.368794e-001 -3.496527e-001  0.000000e+000
    outer loop
      vertex  1.667407e+001 -9.109085e+000  5.000000e+001
      vertex  1.667407e+001 -9.109085e+000  7.000000e+000
      vertex  1.856498e+001 -4.042475e+000  5.000000e+001
    endloop
  endfacet
  facet normal  9.368794e-001 -3.496527e-001  0.000000e+000
    outer loop
      vertex  1.856498e+001 -4.042475e+000  5.000000e+001
      vertex  1.667407e+001 -9.109085e+000  7.000000e+000
      vertex  1.856498e+001 -4.042475e+000  7.000000e+000
    endloop
  endfacet
  facet normal  9.974377e-001 -7.153980e-002  0.000000e+000
    outer loop
      vertex  1.856498e+001 -4.042475e+000  5.000000e+001
      vertex  1.856498e+001 -4.042475e+000  7.000000e+000
      vertex  1.895186e+001  1.351632e+000  5.000000e+001
    endloop
  endfacet
  facet normal  9.974377e-001 -7.153980e-002  0.000000e+000
    outer loop
      vertex  1.895186e+001  1.351632e+000  5.000000e+001
      vertex  1.856498e+001 -4.042475e+000  7.000000e+000
      vertex  1.895186e+001  1.351632e+000  7.000000e+000
    endloop
  endfacet
  facet normal  9.771896e-001  2.123685e-001  -0.000000e+000
    outer loop
      vertex  1.895186e+001  1.351632e+000  5.000000e+001
      vertex  1.895186e+001  1.351632e+000  7.000000e+000
      vertex  1.780338e+001  6.636238e+000  5.000000e+001
    endloop
  endfacet
  facet normal  9.771896e-001  2.123685e-001  0.000000e+000
    outer loop
      vertex  1.780338e+001  6.636238e+000  5.000000e+001
      vertex  1.895186e+001  1.351632e+000  7.000000e+000
      vertex  1.780338e+001  6.636238e+000  7.000000e+000
    endloop
  endfacet
  facet normal  8.777753e-001  4.790725e-001  -0.000000e+000
    outer loop
      vertex  1.780338e+001  6.636238e+000  5.000000e+001
      vertex  1.780338e+001  6.636238e+000  7.000000e+000
      vertex  1.521257e+001  1.138322e+001  5.000000e+001
    endloop
  endfacet
  facet normal  8.777753e-001  4.790725e-001  0.000000e+000
    outer loop
      vertex  1.521257e+001  1.138322e+001  5.000000e+001
      vertex  1.780338e+001  6.636238e+000  7.000000e+000
      vertex  1.521257e+001  1.138322e+001  7.000000e+000
    endloop
  endfacet
  facet normal  7.072490e-001  7.069646e-001  -0.000000e+000
    outer loop
      vertex  1.521257e+001  1.138322e+001  5.000000e+001
      vertex  1.521257e+001  1.138322e+001  7.000000e+000
      vertex  1.138934e+001  1.520799e+001  5.000000e+001
    endloop
  endfacet
  facet normal  7.072490e-001  7.069646e-001  0.000000e+000
    outer loop
      vertex  1.138934e+001  1.520799e+001  5.000000e+001
      vertex  1.521257e+001  1.138322e+001  7.000000e+000
      vertex  1.138934e+001  1.520799e+001  7.000000e+000
    endloop
  endfacet
  facet normal  4.794255e-001  8.775826e-001  -0.000000e+000
    outer loop
      vertex  1.138934e+001  1.520799e+001  5.000000e+001
      vertex  1.138934e+001  1.520799e+001  7.000000e+000
      vertex  6.643401e+000  1.780071e+001  5.000000e+001
    endloop
  endfacet
  facet normal  4.794255e-001  8.775826e-001  0.000000e+000
    outer loop
      vertex  6.643401e+000  1.780071e+001  5.000000e+001
      vertex  1.138934e+001  1.520799e+001  7.000000e+000
      vertex  6.643401e+000  1.780071e+001  7.000000e+000
    endloop
  endfacet
  facet normal  2.127618e-001  9.771041e-001  -0.000000e+000
    outer loop
      vertex  6.643401e+000  1.780071e+001  5.000000e+001
      vertex  6.643401e+000  1.780071e+001  7.000000e+000
      vertex  1.359257e+000  1.895132e+001  5.000000e+001
    endloop
  endfacet
  facet normal  2.127618e-001  9.771041e-001  0.000000e+000
    outer loop
      vertex  1.359257e+000  1.895132e+001  5.000000e+001
      vertex  6.643401e+000  1.780071e+001  7.000000e+000
      vertex  1.359257e+000  1.895132e+001  7.000000e+000
    endloop
  endfacet
  facet normal -7.113844e-002  9.974664e-001  0.000000e+000
    outer loop
      vertex  1.359257e+000  1.895132e+001  5.000000e+001
      vertex  1.359257e+000  1.895132e+001  7.000000e+000
      vertex -4.035006e+000  1.856660e+001  5.000000e+001
    endloop
  endfacet
  facet normal -7.113844e-002  9.974664e-001  0.000000e+000
    outer loop
      vertex -4.035006e+000  1.856660e+001  5.000000e+001
      vertex  1.359257e+000  1.895132e+001  7.000000e+000
      vertex -4.035006e+000  1.856660e+001  7.000000e+000
    endloop
  endfacet
  facet normal -3.492757e-001  9.370200e-001  0.000000e+000
    outer loop
      vertex -4.035006e+000  1.856660e+001  5.000000e+001
      vertex -4.035006e+000  1.856660e+001  7.000000e+000
      vertex -9.102376e+000  1.667773e+001  5.000000e+001
    endloop
  endfacet
  facet normal -3.492757e-001  9.370200e-001  0.000000e+000
    outer loop
      vertex -9.102376e+000  1.667773e+001  5.000000e+001
      vertex -4.035006e+000  1.856660e+001  7.000000e+000
      vertex -9.102376e+000  1.667773e+001  7.000000e+000
    endloop
  endfacet
  facet normal -5.991166e-001  8.006618e-001  0.000000e+000
    outer loop
      vertex -9.102376e+000  1.667773e+001  5.000000e+001
      vertex -9.102376e+000  1.667773e+001  7.000000e+000
      vertex -1.343233e+001  1.343773e+001  5.000000e+001
    endloop
  endfacet
  facet normal -5.991166e-001  8.006618e-001  0.000000e+000
    outer loop
      vertex -1.343233e+001  1.343773e+001  5.000000e+001
      vertex -9.102376e+000  1.667773e+001  7.000000e+000
      vertex -1.343233e+001  1.343773e+001  7.000000e+000
    endloop
  endfacet
  facet normal -8.004208e-001  5.994386e-001  0.000000e+000
    outer loop
      vertex -1.343233e+001  1.343773e+001  5.000000e+001
      vertex -1.343233e+001  1.343773e+001  7.000000e+000
      vertex -1.667407e+001  9.109085e+000  5.000000e+001
    endloop
  endfacet
  facet normal -8.004208e-001  5.994386e-001  0.000000e+000
    outer loop
      vertex -1.667407e+001  9.109085e+000  5.000000e+001
      vertex -1.343233e+001  1.343773e+001  7.000000e+000
      vertex -1.667407e+001  9.109085e+000  7.000000e+000
    endloop
  endfacet
  facet normal  9.942488e-001 -1.070951e-001  0.000000e+000
    outer loop
      vertex  1.817185e+000 -9.927326e-001  7.000000e+000
      vertex  1.817185e+000 -9.927326e-001 -1.040739e+001
      vertex  1.986912e+000  5.829757e-001  7.000000e+000
    endloop
  endfacet
  facet normal  9.942488e-001 -1.070951e-001  0.000000e+000
    outer loop
      vertex  1.986912e+000  5.829757e-001  7.000000e+000
      vertex  1.817185e+000 -9.927326e-001 -1.040739e+001
      vertex  1.986912e+000  5.829757e-001 -1.040739e+001
    endloop
  endfacet
  facet normal  7.787678e-001  6.273123e-001  -0.000000e+000
    outer loop
      vertex  1.986912e+000  5.829757e-001  7.000000e+000
      vertex  1.986912e+000  5.829757e-001 -1.040739e+001
      vertex  9.927326e-001  1.817185e+000  7.000000e+000
    endloop
  endfacet
  facet normal  7.787678e-001  6.273123e-001  0.000000e+000
    outer loop
      vertex  9.927326e-001  1.817185e+000  7.000000e+000
      vertex  1.986912e+000  5.829757e-001 -1.040739e+001
      vertex  9.927326e-001  1.817185e+000 -1.040739e+001
    endloop
  endfacet
  facet normal  1.070951e-001  9.942488e-001  -0.000000e+000
    outer loop
      vertex  9.927326e-001  1.817185e+000  7.000000e+000
      vertex  9.927326e-001  1.817185e+000 -1.040739e+001
      vertex -5.829757e-001  1.986912e+000  7.000000e+000
    endloop
  endfacet
  facet normal  1.070951e-001  9.942488e-001  0.000000e+000
    outer loop
      vertex -5.829757e-001  1.986912e+000  7.000000e+000
      vertex  9.927326e-001  1.817185e+000 -1.040739e+001
      vertex -5.829757e-001  1.986912e+000 -1.040739e+001
    endloop
  endfacet
  facet normal -6.273123e-001  7.787678e-001  0.000000e+000
    outer loop
      vertex -5.829757e-001  1.986912e+000  7.000000e+000
      vertex -5.829757e-001  1.986912e+000 -1.040739e+001
      vertex -1.817185e+000  9.927326e-001  7.000000e+000
    endloop
  endfacet
  facet normal -6.273123e-001  7.787678e-001  0.000000e+000
    outer loop
      vertex -1.817185e+000  9.927326e-001  7.000000e+000
      vertex -5.829757e-001  1.986912e+000 -1.040739e+001
      vertex -1.817185e+000  9.927326e-001 -1.040739e+001
    endloop
  endfacet
  facet normal  9.417768e-001 -3.362387e-001  0.000000e+000
    outer loop
      vertex  1.206449e+001 -6.590860e+000 -1.040739e+001
      vertex  1.206449e+001 -6.590860e+000 -1.300000e+001
      vertex  1.351070e+001 -2.540148e+000 -1.040739e+001
    endloop
  endfacet
  facet normal  9.417768e-001 -3.362387e-001  0.000000e+000
    outer loop
      vertex  1.351070e+001 -2.540148e+000 -1.040739e+001
      vertex  1.206449e+001 -6.590860e+000 -1.300000e+001
      vertex  1.351070e+001 -2.540148e+000 -1.300000e+001
    endloop
  endfacet
  facet normal  9.995864e-001 -2.875720e-002  0.000000e+000
    outer loop
      vertex  1.351070e+001 -2.540148e+000 -1.040739e+001
      vertex  1.351070e+001 -2.540148e+000 -1.300000e+001
      vertex  1.363439e+001  1.759210e+000 -1.040739e+001
    endloop
  endfacet
  facet normal  9.995864e-001 -2.875720e-002  0.000000e+000
    outer loop
      vertex  1.363439e+001  1.759210e+000 -1.040739e+001
      vertex  1.351070e+001 -2.540148e+000 -1.300000e+001
      vertex  1.363439e+001  1.759210e+000 -1.300000e+001
    endloop
  endfacet
  facet normal  9.595496e-001  2.815396e-001  -0.000000e+000
    outer loop
      vertex  1.363439e+001  1.759210e+000 -1.040739e+001
      vertex  1.363439e+001  1.759210e+000 -1.300000e+001
      vertex  1.242345e+001  5.886365e+000 -1.040739e+001
    endloop
  endfacet
  facet normal  9.595496e-001  2.815396e-001  0.000000e+000
    outer loop
      vertex  1.242345e+001  5.886365e+000 -1.040739e+001
      vertex  1.363439e+001  1.759210e+000 -1.300000e+001
      vertex  1.242345e+001  5.886365e+000 -1.300000e+001
    endloop
  endfacet
  facet normal  8.255855e-001  5.642771e-001  -0.000000e+000
    outer loop
      vertex  1.242345e+001  5.886365e+000 -1.040739e+001
      vertex  1.242345e+001  5.886365e+000 -1.300000e+001
      vertex  9.996412e+000  9.437323e+000 -1.040739e+001
    endloop
  endfacet
  facet normal  8.255855e-001  5.642771e-001  0.000000e+000
    outer loop
      vertex  9.996412e+000  9.437323e+000 -1.040739e+001
      vertex  1.242345e+001  5.886365e+000 -1.300000e+001
      vertex  9.996412e+000  9.437323e+000 -1.300000e+001
    endloop
  endfacet
  facet normal  6.108072e-001  7.917795e-001  -0.000000e+000
    outer loop
      vertex  9.996412e+000  9.437323e+000 -1.040739e+001
      vertex  9.996412e+000  9.437323e+000 -1.300000e+001
      vertex  6.590860e+000  1.206449e+001 -1.040739e+001
    endloop
  endfacet
  facet normal  6.108072e-001  7.917795e-001  0.000000e+000
    outer loop
      vertex  6.590860e+000  1.206449e+001 -1.040739e+001
      vertex  9.996412e+000  9.437323e+000 -1.300000e+001
      vertex  6.590860e+000  1.206449e+001 -1.300000e+001
    endloop
  endfacet
  facet normal  3.362387e-001  9.417768e-001  -0.000000e+000
    outer loop
      vertex  6.590860e+000  1.206449e+001 -1.040739e+001
      vertex  6.590860e+000  1.206449e+001 -1.300000e+001
      vertex  2.540148e+000  1.351070e+001 -1.040739e+001
    endloop
  endfacet
  facet normal  3.362387e-001  9.417768e-001  0.000000e+000
    outer loop
      vertex  2.540148e+000  1.351070e+001 -1.040739e+001
      vertex  6.590860e+000  1.206449e+001 -1.300000e+001
      vertex  2.540148e+000  1.351070e+001 -1.300000e+001
    endloop
  endfacet
  facet normal  2.875720e-002  9.995864e-001  -0.000000e+000
    outer loop
      vertex  2.540148e+000  1.351070e+001 -1.040739e+001
      vertex  2.540148e+000  1.351070e+001 -1.300000e+001
      vertex -1.759210e+000  1.363439e+001 -1.040739e+001
    endloop
  endfacet
  facet normal  2.875720e-002  9.995864e-001  0.000000e+000
    outer loop
      vertex -1.759210e+000  1.363439e+001 -1.040739e+001
      vertex  2.540148e+000  1.351070e+001 -1.300000e+001
      vertex -1.759210e+000  1.363439e+001 -1.300000e+001
    endloop
  endfacet
  facet normal -2.815396e-001  9.595496e-001  0.000000e+000
    outer loop
      vertex -1.759210e+000  1.363439e+001 -1.040739e+001
      vertex -1.759210e+000  1.363439e+001 -1.300000e+001
      vertex -5.886365e+000  1.242345e+001 -1.040739e+001
    endloop
  endfacet
  facet normal -2.815396e-001  9.595496e-001  0.000000e+000
    outer loop
      vertex -5.886365e+000  1.242345e+001 -1.040739e+001
      vertex -1.759210e+000  1.363439e+001 -1.300000e+001
      vertex -5.886365e+000  1.242345e+001 -1.300000e+001
    endloop
  endfacet
  facet normal -5.642771e-001  8.255855e-001  0.000000e+000
    outer loop
      vertex -5.886365e+000  1.242345e+001 -1.040739e+001
      vertex -5.886365e+000  1.242345e+001 -1.300000e+001
      vertex -9.437323e+000  9.996412e+000 -1.040739e+001
    endloop
  endfacet
  facet normal -5.642771e-001  8.255855e-001  0.000000e+000
    outer loop
      vertex -9.437323e+000  9.996412e+000 -1.040739e+001
      vertex -5.886365e+000  1.242345e+001 -1.300000e+001
      vertex -9.437323e+000  9.996412e+000 -1.300000e+001
    endloop
  endfacet
  facet normal -7.917795e-001  6.108072e-001  0.000000e+000
    outer loop
      vertex -9.437323e+000  9.996412e+000 -1.040739e+001
      vertex -9.437323e+000  9.996412e+000 -1.300000e+001
      vertex -1.206449e+001  6.590860e+000 -1.040739e+001
    endloop
  endfacet
  facet normal -7.917795e-001  6.108072e-001  0.000000e+000
    outer loop
      vertex -1.206449e+001  6.590860e+000 -1.040739e+001
      vertex -9.437323e+000  9.996412e+000 -1.300000e+001
      vertex -1.206449e+001  6.590860e+000 -1.300000e+001
    endloop
  endfacet
endsolid CATIA STL
